# xmcd
#
# Track frame offsets: 
#        150
#        22242
#        36290
#        53265
#        60512
#        77702
#        122150
#        138930
#        149752
#        178547
#        193267
#        224355
#        230045
#        242912
#        248892
#
# Disc length: 3508 seconds
#
# Revision: 7
# Processed by: cddbd v1.5.2PL0 Copyright (c) Steve Scherf et al.
# Submitted via: ExactAudioCopy v0.99pb5
#
DISCID=e10db20f
DTITLE=Zelenka - Zelenka - Complete Orchestral Works CD2
DYEAR=2001
DGENRE=Classical
TTITLE0=Capiccio 5 in G - Allegro
TTITLE1=Capriccio 5 in G - Menuett
TTITLE2=Capriccio 5 in G - Il Contento
TTITLE3=Capriccio 5 in G - Il Furibundo
TTITLE4=Capriccio 5 in G - Villanella
TTITLE5=Simphonie Concertanti in a - Allegro
TTITLE6=Simphonie Concertanti in a - Andante
TTITLE7=Simphonie Concertanti in a - Capriccio
TTITLE8=Simphonie Concertanti in a - Aria da Capriccio
TTITLE9=Simphonie Concertanti in a - Menuett
TTITLE10=Capriccio 1 in D - Andante, Allegro
TTITLE11=Capriccio 1 in D - Paysan
TTITLE12=Capriccio 1 in D - Aria
TTITLE13=Capriccio 1 in D - Bourree
TTITLE14=Capriccio 1 in D - Menuett
EXTD=Das Neu-Eroeffnete Orchestre,\nJuergen Sonnentheil conducting.\\
EXTT0=
EXTT1=
EXTT2=
EXTT3=
EXTT4=
EXTT5=
EXTT6=
EXTT7=
EXTT8=
EXTT9=
EXTT10=
EXTT11=
EXTT12=
EXTT13=
EXTT14=
PLAYORDER=
